<?xml version="1.0" encoding="UTF-8" standalone="no"?>
<!DOCTYPE svg PUBLIC "-//W3C//DTD SVG 1.1//EN" "http://www.w3.org/Graphics/SVG/1.1/DTD/svg11.dtd">
<svg width="100%" height="100%" viewBox="0 0 201 155" version="1.1" xmlns="http://www.w3.org/2000/svg" xmlns:xlink="http://www.w3.org/1999/xlink" xml:space="preserve" xmlns:serif="http://www.serif.com/" style="fill-rule:evenodd;clip-rule:evenodd;stroke-linecap:round;stroke-miterlimit:1.5;">
    <g transform="matrix(1,0,0,1,-2703.7,-100.513)">
        <g transform="matrix(1,0,0,1,-17.6902,-0.160513)">
            <g id="scale" transform="matrix(0.856028,0,0,0.856028,2008.43,-263.695)">
                <g transform="matrix(1,0,0,1,-4630.86,-1131.88)">
                    <path d="M5484.73,1582.3L5678.16,1582.3" style="fill:none;stroke:black;stroke-width:7.3px;"/>
                </g>
                <g transform="matrix(1,0,0,1,-4630.86,-1131.88)">
                    <path d="M5535.25,1650.46L5503.98,1582.3L5472.7,1650.46" style="fill:none;stroke:black;stroke-width:7.3px;"/>
                </g>
                <g transform="matrix(1,0,0,1,-4477.09,-1131.88)">
                    <path d="M5535.25,1650.46L5503.98,1582.3L5472.7,1650.46" style="fill:none;stroke:black;stroke-width:7.3px;"/>
                </g>
                <g transform="matrix(1,0,0,1,-4630.86,-1131.88)">
                    <path d="M5467.38,1654.53C5467.38,1674.74 5483.76,1691.12 5503.98,1691.12C5524.19,1691.12 5540.57,1674.74 5540.57,1654.53L5503.98,1654.53L5467.38,1654.53Z" style="fill:white;stroke:black;stroke-width:7.3px;stroke-linejoin:round;"/>
                </g>
                <g transform="matrix(0.84148,0,0,-0.84148,-3681.48,1995.27)">
                    <path d="M5467.38,1654.53C5467.38,1674.74 5483.76,1691.12 5503.98,1691.12C5524.19,1691.12 5540.57,1674.74 5540.57,1654.53L5503.98,1654.53L5467.38,1654.53Z" style="fill:white;stroke:black;stroke-width:8.68px;stroke-linejoin:round;"/>
                </g>
                <g transform="matrix(1,0,0,1,-4477.09,-1131.88)">
                    <path d="M5467.38,1654.53C5467.38,1674.74 5483.76,1691.12 5503.98,1691.12C5524.19,1691.12 5540.57,1674.74 5540.57,1654.53L5503.98,1654.53L5467.38,1654.53Z" style="fill:white;stroke:black;stroke-width:7.3px;stroke-linejoin:round;"/>
                </g>
                <g transform="matrix(1,0,0,1,-4630.86,-1131.88)">
                    <path d="M5580.86,1582.3L5580.86,1704.11" style="fill:none;stroke:black;stroke-width:7.3px;stroke-linejoin:round;"/>
                </g>
                <g transform="matrix(1,0,0,1,-4630.86,-1131.88)">
                    <circle cx="5580.86" cy="1582.3" r="18.193" style="fill:white;stroke:black;stroke-width:7.3px;"/>
                </g>
            </g>
        </g>
    </g>
</svg>
