<?xml version="1.0" encoding="UTF-8" standalone="no"?>
<!DOCTYPE svg PUBLIC "-//W3C//DTD SVG 1.1//EN" "http://www.w3.org/Graphics/SVG/1.1/DTD/svg11.dtd">
<svg width="100%" height="100%" viewBox="0 0 232 178" version="1.1" xmlns="http://www.w3.org/2000/svg" xmlns:xlink="http://www.w3.org/1999/xlink" xml:space="preserve" xmlns:serif="http://www.serif.com/" style="fill-rule:evenodd;clip-rule:evenodd;stroke-linecap:round;stroke-linejoin:round;stroke-miterlimit:1.5;">
    <g transform="matrix(1,0,0,1,-3291.22,-1075.05)">
        <g transform="matrix(1.10724,0,0,1,-196.34,0)">
            <g id="Book" transform="matrix(0.517612,0,0,0.198541,2124.06,1042.49)">
                <g transform="matrix(1.7645,0,0,5.43291,-124.571,-1044.37)">
                    <path d="M1420.1,264.422C1420.1,257.47 1414.08,251.827 1406.66,251.827L1209.67,251.827C1202.26,251.827 1196.24,257.47 1196.24,264.422L1196.24,371.3C1196.24,378.251 1202.26,383.894 1209.67,383.894L1406.66,383.894C1414.08,383.894 1420.1,378.251 1420.1,371.3L1420.1,264.422Z" style="fill:white;stroke:black;stroke-width:4.97px;"/>
                </g>
                <g transform="matrix(1.47377,0,0,4.86981,255.754,-902.572)">
                    <rect x="1196.24" y="251.827" width="223.862" height="132.068" style="fill:white;stroke:black;stroke-width:6.88px;"/>
                </g>
                <g transform="matrix(0.736883,0,0,4.86981,1137.24,-902.572)">
                    <path d="M1420.1,251.827C1420.1,251.827 1420.1,251.827 1420.1,251.827C1351.28,233.643 1265.05,233.643 1196.24,251.827C1196.24,251.827 1196.24,251.827 1196.24,251.827L1196.24,383.894C1196.24,383.894 1196.24,383.894 1196.24,383.894C1265.05,365.71 1351.28,365.71 1420.1,383.894C1420.1,383.894 1420.1,383.894 1420.1,383.894L1420.1,251.827Z" style="fill:white;stroke:black;stroke-width:8.38px;"/>
                </g>
                <g transform="matrix(0.734152,0,0,4.86981,1305.47,-902.572)">
                    <path d="M1420.1,251.827C1420.1,251.827 1420.1,251.827 1420.1,251.826C1351.32,233.653 1265.01,233.653 1196.24,251.826C1196.24,251.827 1196.24,251.827 1196.24,251.827L1196.24,383.894C1196.24,383.894 1196.24,383.894 1196.24,383.894C1265.01,365.72 1351.32,365.72 1420.1,383.894C1420.1,383.894 1420.1,383.894 1420.1,383.894L1420.1,251.827Z" style="fill:white;stroke:black;stroke-width:8.38px;"/>
                </g>
                <g transform="matrix(1.45088,0,0,4.18817,0,-788.801)">
                    <path d="M1402.05,272.668C1416.97,265.915 1432.47,262.348 1448.23,262.343" style="fill:none;stroke:black;stroke-width:7.52px;"/>
                </g>
                <g transform="matrix(1.45088,0,0,4.18817,0,-722.855)">
                    <path d="M1402.05,272.668C1416.97,265.915 1432.47,262.348 1448.23,262.343" style="fill:none;stroke:black;stroke-width:7.52px;"/>
                </g>
                <g transform="matrix(1.45088,0,0,4.18817,0,-656.91)">
                    <path d="M1402.05,272.668C1416.97,265.915 1432.47,262.348 1448.23,262.343" style="fill:none;stroke:black;stroke-width:7.52px;"/>
                </g>
                <g transform="matrix(1.45088,0,0,4.18817,0,-590.964)">
                    <path d="M1402.05,272.668C1416.97,265.915 1432.47,262.348 1448.23,262.343" style="fill:none;stroke:black;stroke-width:7.52px;"/>
                </g>
                <g transform="matrix(1.45088,0,0,4.18817,0,-525.019)">
                    <path d="M1402.05,272.668C1431.41,259.382 1462.99,258.428 1494.42,272.668" style="fill:none;stroke:black;stroke-width:7.52px;"/>
                </g>
                <g transform="matrix(1.45088,0,0,4.18817,164.649,-525.019)">
                    <path d="M1402.05,272.668C1431.41,259.382 1462.99,258.428 1494.42,272.668" style="fill:none;stroke:black;stroke-width:7.52px;"/>
                </g>
                <g transform="matrix(1.45088,0,0,4.18817,164.649,-793.604)">
                    <path d="M1402.05,272.668C1431.41,259.382 1462.99,258.428 1494.42,272.668" style="fill:none;stroke:black;stroke-width:7.52px;"/>
                </g>
                <g transform="matrix(1.45088,0,0,4.18817,0,-590.749)">
                    <path d="M1494.42,225.451C1482.7,220.14 1470.95,216.942 1459.31,215.71C1459.19,262.635 1459.34,215.84 1459.31,262.927C1470.95,264.159 1482.7,267.357 1494.42,272.668C1494.45,225.435 1494.45,272.691 1494.42,225.451Z" style="fill:rgb(233,233,233);stroke:black;stroke-width:7.52px;"/>
                </g>
                <g transform="matrix(1.45088,0,0,4.18817,0,-459.073)">
                    <path d="M1402.05,272.668C1431.41,259.382 1462.99,258.428 1494.42,272.668" style="fill:none;stroke:black;stroke-width:7.52px;"/>
                </g>
                <g transform="matrix(1.45088,0,0,4.18817,164.649,-459.073)">
                    <path d="M1494.42,319.905C1462.99,305.665 1431.41,306.619 1402.05,319.905C1402.01,272.655 1402.13,319.737 1402.05,272.668C1431.41,259.382 1462.99,258.428 1494.42,272.668C1494.3,319.847 1494.3,272.642 1494.42,319.905Z" style="fill:rgb(233,233,233);stroke:black;stroke-width:7.52px;"/>
                </g>
                <g transform="matrix(1.45088,0,0,4.18817,164.649,-727.658)">
                    <path d="M1402.05,272.668C1431.41,259.382 1462.99,258.428 1494.42,272.668" style="fill:none;stroke:black;stroke-width:7.52px;"/>
                </g>
                <g transform="matrix(1.45088,0,0,4.18817,0,-393.127)">
                    <path d="M1402.05,272.668C1431.41,259.382 1462.99,258.428 1494.42,272.668" style="fill:none;stroke:black;stroke-width:7.52px;"/>
                </g>
                <g transform="matrix(1.45088,0,0,4.18817,164.649,-661.713)">
                    <path d="M1402.05,272.668C1431.41,259.382 1462.99,258.428 1494.42,272.668" style="fill:none;stroke:black;stroke-width:7.52px;"/>
                </g>
                <g transform="matrix(1.45088,0,0,4.18817,0,-327.182)">
                    <path d="M1402.05,272.668C1431.41,259.382 1462.99,258.428 1494.42,272.668" style="fill:none;stroke:black;stroke-width:7.52px;"/>
                </g>
                <g transform="matrix(1.45088,0,0,4.18817,164.649,-595.767)">
                    <path d="M1402.05,272.668C1431.41,259.382 1462.99,258.428 1494.42,272.668" style="fill:none;stroke:black;stroke-width:7.52px;"/>
                </g>
                <g transform="matrix(1.45088,0,0,4.18817,0,-261.236)">
                    <path d="M1402.05,272.668C1431.41,259.382 1462.99,258.428 1494.42,272.668" style="fill:none;stroke:black;stroke-width:7.52px;"/>
                </g>
                <g transform="matrix(2.05541,0,0,4.18817,-931.112,-840.904)">
                    <path d="M1505.08,431.651L1505.08,449.407" style="fill:none;stroke:black;stroke-width:6.13px;"/>
                </g>
                <g transform="matrix(2.05541,0,0,4.18817,-888.625,-840.904)">
                    <path d="M1505.08,431.651L1505.08,449.407" style="fill:none;stroke:black;stroke-width:6.13px;"/>
                </g>
            </g>
        </g>
    </g>
</svg>
