<?xml version="1.0" encoding="UTF-8" standalone="no"?>
<!DOCTYPE svg PUBLIC "-//W3C//DTD SVG 1.1//EN" "http://www.w3.org/Graphics/SVG/1.1/DTD/svg11.dtd">
<svg width="100%" height="100%" viewBox="0 0 166 149" version="1.1" xmlns="http://www.w3.org/2000/svg" xmlns:xlink="http://www.w3.org/1999/xlink" xml:space="preserve" xmlns:serif="http://www.serif.com/" style="fill-rule:evenodd;clip-rule:evenodd;stroke-linecap:round;stroke-linejoin:round;stroke-miterlimit:1.5;">
    <g transform="matrix(1,0,0,1,-2189.09,-359.589)">
        <g transform="matrix(1,0,0,1,-16.1765,0.21415)">
            <g id="Gears-computer" serif:id="Gears computer" transform="matrix(1,0,0,1,-8648.59,-1873.68)">
                <g>
                    <g>
                        <g transform="matrix(0.97343,0,0,1,-239.495,178.098)">
                            <path d="M11562.6,2067.75C11562.6,2062.41 11558.2,2058.08 11552.7,2058.08L11409.3,2058.08C11403.8,2058.08 11399.4,2062.41 11399.4,2067.75C11399.4,2088.75 11399.4,2138.33 11399.4,2159.34C11399.4,2164.68 11403.8,2169.01 11409.3,2169.01L11552.7,2169.01C11558.2,2169.01 11562.6,2164.68 11562.6,2159.34C11562.6,2138.33 11562.6,2088.75 11562.6,2067.75Z" style="fill:none;stroke:black;stroke-width:6.33px;"/>
                        </g>
                        <g transform="matrix(1.30675,0,0,1,-4065.55,178.098)">
                            <rect x="11448.3" y="2187.93" width="64.274" height="11.915" style="fill:none;stroke:black;stroke-width:5.37px;"/>
                        </g>
                        <g transform="matrix(1,0,0,1,-544.151,178.098)">
                            <rect x="11459.3" y="2169.01" width="42.586" height="18.927" style="fill:none;stroke:black;stroke-width:6.25px;"/>
                        </g>
                    </g>
                    <g transform="matrix(0.839799,0,0,0.807179,1294.72,585.634)">
                        <path d="M11562.6,2074.02C11562.6,2069.79 11561,2065.74 11558.1,2062.75C11555.2,2059.76 11551.3,2058.08 11547.3,2058.08C11516.2,2058.08 11445.8,2058.08 11414.7,2058.08C11410.6,2058.08 11406.7,2059.76 11403.8,2062.75C11401,2065.74 11399.4,2069.79 11399.4,2074.02C11399.4,2095.09 11399.4,2132 11399.4,2153.07C11399.4,2157.29 11401,2161.35 11403.8,2164.34C11406.7,2167.33 11410.6,2169.01 11414.7,2169.01C11445.8,2169.01 11516.2,2169.01 11547.3,2169.01C11551.3,2169.01 11555.2,2167.33 11558.1,2164.34C11561,2161.35 11562.6,2157.29 11562.6,2153.07C11562.6,2132 11562.6,2095.09 11562.6,2074.02Z" style="stroke:black;stroke-width:7.59px;"/>
                    </g>
                </g>
                <g id="path3339" transform="matrix(2.71057,1.12342,-1.12342,2.71057,10911.6,2229.85)">
                    <path d="M19.938,0.248C19.741,0.272 19.528,0.36 19.297,0.527C17.449,1.87 20.901,3.591 20.195,5.764C19.489,7.936 15.685,7.3 16.391,9.473C17.097,11.645 19.8,8.894 21.648,10.236C23.497,11.579 21.716,15 24,15C26.284,15 24.503,11.579 26.352,10.236C28.2,8.894 30.903,11.645 31.609,9.473C32.315,7.3 28.511,7.936 27.805,5.764C27.099,3.591 30.551,1.87 28.703,0.527C26.855,-0.815 26.284,3 24,3C22.001,3 21.316,0.079 19.938,0.248ZM24,5C25.097,5 26,5.903 26,7C26,8.097 25.097,9 24,9C22.903,9 22,8.097 22,7C22,5.903 22.903,5 24,5Z" style="fill:white;fill-rule:nonzero;"/>
                </g>
                <g id="path3347" transform="matrix(2.71057,1.12342,-1.12342,2.71057,10911.6,2229.85)">
                    <path d="M12,8C9.621,8 11.138,11.699 8.939,12.609C6.741,13.52 5.198,9.833 3.516,11.516C1.833,13.198 5.52,14.741 4.609,16.939C3.699,19.138 0,17.621 0,20C0,22.379 3.699,20.862 4.609,23.061C5.52,25.259 1.833,26.802 3.516,28.484C5.198,30.167 6.741,26.48 8.939,27.391C11.138,28.301 9.621,32 12,32C14.379,32 12.862,28.301 15.061,27.391C17.259,26.48 18.802,30.167 20.484,28.484C22.167,26.802 18.48,25.259 19.391,23.061C20.301,20.862 24,22.379 24,20C24,17.621 20.301,19.138 19.391,16.939C18.48,14.741 22.167,13.198 20.484,11.516C18.802,9.833 17.259,13.52 15.061,12.609C12.862,11.699 14.379,8 12,8ZM12,17.5C13.371,17.5 14.5,18.629 14.5,20C14.5,21.371 13.371,22.5 12,22.5C10.629,22.5 9.5,21.371 9.5,20C9.5,18.629 10.629,17.5 12,17.5Z" style="fill:white;fill-rule:nonzero;"/>
                </g>
            </g>
        </g>
    </g>
</svg>
