<?xml version="1.0" encoding="UTF-8" standalone="no"?>
<!DOCTYPE svg PUBLIC "-//W3C//DTD SVG 1.1//EN" "http://www.w3.org/Graphics/SVG/1.1/DTD/svg11.dtd">
<svg width="100%" height="100%" viewBox="0 0 260 149" version="1.1" xmlns="http://www.w3.org/2000/svg" xmlns:xlink="http://www.w3.org/1999/xlink" xml:space="preserve" xmlns:serif="http://www.serif.com/" style="fill-rule:evenodd;clip-rule:evenodd;stroke-linecap:round;stroke-linejoin:round;stroke-miterlimit:1.5;">
    <g transform="matrix(1,0,0,1,-1862.43,-359.372)">
        <g transform="matrix(1,0,0,1,-16.1765,0.21415)">
            <g id="Schrodinger-Computer" serif:id="Schrodinger Computer" transform="matrix(1,0,0,1,-8975.25,-1873.89)">
                <g id="Quantum">
                    <g>
                        <g>
                            <g transform="matrix(0.97343,0,0,1,-239.495,178.098)">
                                <path d="M11562.6,2067.75C11562.6,2062.41 11558.2,2058.08 11552.7,2058.08L11409.3,2058.08C11403.8,2058.08 11399.4,2062.41 11399.4,2067.75C11399.4,2088.75 11399.4,2138.33 11399.4,2159.34C11399.4,2164.68 11403.8,2169.01 11409.3,2169.01L11552.7,2169.01C11558.2,2169.01 11562.6,2164.68 11562.6,2159.34L11562.6,2067.75Z" style="fill:none;stroke:black;stroke-width:6.33px;"/>
                            </g>
                            <g transform="matrix(1.30675,0,0,1,-4065.55,178.098)">
                                <rect x="11448.3" y="2187.93" width="64.274" height="11.915" style="fill:none;stroke:black;stroke-width:5.37px;"/>
                            </g>
                            <g transform="matrix(1,0,0,1,-544.151,178.098)">
                                <rect x="11459.3" y="2169.01" width="42.586" height="18.927" style="fill:none;stroke:black;stroke-width:6.25px;"/>
                            </g>
                        </g>
                        <g transform="matrix(0.839799,0,0,0.807179,1294.72,585.634)">
                            <path d="M11562.6,2074.02C11562.6,2069.79 11561,2065.74 11558.1,2062.75C11555.2,2059.76 11551.3,2058.08 11547.3,2058.08C11516.2,2058.08 11445.8,2058.08 11414.7,2058.08C11410.6,2058.08 11406.7,2059.76 11403.8,2062.75C11401,2065.74 11399.4,2069.79 11399.4,2074.02C11399.4,2095.09 11399.4,2132 11399.4,2153.07C11399.4,2157.29 11401,2161.35 11403.8,2164.34C11406.7,2167.33 11410.6,2169.01 11414.7,2169.01C11445.8,2169.01 11516.2,2169.01 11547.3,2169.01C11551.3,2169.01 11555.2,2167.33 11558.1,2164.34C11561,2161.35 11562.6,2157.29 11562.6,2153.07C11562.6,2132 11562.6,2095.09 11562.6,2074.02Z" style="stroke:black;stroke-width:7.59px;"/>
                        </g>
                    </g>
                    <g transform="matrix(1.12337,0,0,1.12337,-1349.04,-284.945)">
                        <g transform="matrix(1,0,0,1,0.581504,0)">
                            <path d="M10909.3,2264.83L10914.6,2264.83C10914.6,2264.83 10914.6,2296.06 10935.9,2296.06C10957.1,2296.06 10957.1,2264.83 10957.1,2264.83L10962,2264.83" style="fill:none;stroke:white;stroke-width:5.56px;"/>
                        </g>
                        <g transform="matrix(1,0,0,1,0.581504,0)">
                            <path d="M10935.9,2264.83L10935.9,2322.39L10926.1,2322.39" style="fill:none;stroke:white;stroke-width:5.56px;"/>
                        </g>
                        <g transform="matrix(-1,0,0,1,21872.3,0)">
                            <path d="M10935.9,2264.83L10935.9,2322.39L10926.1,2322.39" style="fill:none;stroke:white;stroke-width:5.56px;"/>
                        </g>
                    </g>
                </g>
                <g id="torre">
                    <g transform="matrix(1,0,0,1,0.581504,0)">
                        <rect x="11031.8" y="2236.18" width="78.248" height="142.204" style="fill:none;stroke:black;stroke-width:6.25px;"/>
                    </g>
                    <g transform="matrix(0.717795,0,0,0.123763,3124.86,1975.35)">
                        <rect x="11031.8" y="2236.18" width="78.248" height="142.204" style="stroke:black;stroke-width:12.13px;"/>
                    </g>
                    <g transform="matrix(0.717795,0,0,0.123763,3124.86,2004.62)">
                        <rect x="11031.8" y="2236.18" width="78.248" height="142.204" style="stroke:black;stroke-width:12.13px;"/>
                    </g>
                    <g transform="matrix(1,0,0,1,0.581504,0)">
                        <circle cx="11071" cy="2351.6" r="6.388" style="stroke:black;stroke-width:6.25px;"/>
                    </g>
                </g>
            </g>
        </g>
    </g>
</svg>
