<?xml version="1.0" encoding="UTF-8" standalone="no"?>
<!DOCTYPE svg PUBLIC "-//W3C//DTD SVG 1.1//EN" "http://www.w3.org/Graphics/SVG/1.1/DTD/svg11.dtd">
<svg width="100%" height="100%" viewBox="0 0 130 149" version="1.1" xmlns="http://www.w3.org/2000/svg" xmlns:xlink="http://www.w3.org/1999/xlink" xml:space="preserve" xmlns:serif="http://www.serif.com/" style="fill-rule:evenodd;clip-rule:evenodd;stroke-linecap:round;stroke-linejoin:round;stroke-miterlimit:1.5;">
    <g transform="matrix(1,0,0,1,-2126.8,-103.022)">
        <g transform="matrix(1,0,0,1,-17.6902,-0.160513)">
            <g id="erlenmeyer" transform="matrix(1,0,0,1,-8620.1,-1951.77)">
                <g transform="matrix(1.11909,0,0,1,-1288.98,0)">
                    <path d="M10810.7,2075.04L10810.7,2102.42C10810.7,2102.42 10789.5,2158.21 10779.2,2185.35C10778,2188.57 10778.3,2192.26 10780,2195.18C10781.7,2198.09 10784.6,2199.85 10787.8,2199.85C10808.9,2199.85 10848.5,2199.85 10869.6,2199.85C10872.8,2199.85 10875.7,2198.1 10877.4,2195.18C10879.1,2192.27 10879.4,2188.58 10878.2,2185.36C10867.9,2158.19 10846.7,2102.26 10846.7,2102.26L10846.7,2102.26L10846.7,2075.04L10847.2,2075.04C10849.9,2075.04 10852.1,2072.6 10852.1,2069.58C10852.1,2067.65 10852.1,2065.47 10852.1,2063.54C10852.1,2060.52 10849.9,2058.08 10847.2,2058.08C10838.3,2058.08 10819.3,2058.08 10810.2,2058.08C10808.9,2058.08 10807.7,2058.66 10806.7,2059.7C10805.8,2060.74 10805.3,2062.15 10805.3,2063.62C10805.3,2065.51 10805.3,2067.61 10805.3,2069.5C10805.3,2070.97 10805.8,2072.38 10806.7,2073.41C10807.7,2074.45 10808.9,2075.04 10810.2,2075.04L10810.7,2075.04Z" style="fill:none;stroke:black;stroke-width:5.89px;"/>
                </g>
                <g transform="matrix(0.771242,0,0,0.835519,2477.73,350.174)">
                    <path d="M10854.8,2128.96L10803,2128.96C10803,2128.96 10774.6,2193 10771.8,2199.35C10771.8,2199.46 10771.8,2199.59 10771.9,2199.69C10771.9,2199.79 10772,2199.85 10772.2,2199.85C10780.6,2199.85 10877.5,2199.85 10886,2199.85C10886.1,2199.85 10886.2,2199.79 10886.3,2199.69C10886.4,2199.59 10886.4,2199.46 10886.4,2199.34C10883.5,2192.99 10854.8,2128.96 10854.8,2128.96Z" style="stroke:black;stroke-width:7.77px;"/>
                </g>
            </g>
        </g>
    </g>
</svg>
