<?xml version="1.0" encoding="UTF-8" standalone="no"?>
<!DOCTYPE svg PUBLIC "-//W3C//DTD SVG 1.1//EN" "http://www.w3.org/Graphics/SVG/1.1/DTD/svg11.dtd">
<svg width="100%" height="100%" viewBox="0 0 235 156" version="1.1" xmlns="http://www.w3.org/2000/svg" xmlns:xlink="http://www.w3.org/1999/xlink" xml:space="preserve" xmlns:serif="http://www.serif.com/" style="fill-rule:evenodd;clip-rule:evenodd;stroke-linecap:round;stroke-linejoin:round;stroke-miterlimit:1.5;">
    <g transform="matrix(1,0,0,1,-2541.8,-1100.55)">
        <g transform="matrix(1,0,0,1,-16.0301,-23.5008)">
            <g id="grafica_1" transform="matrix(1.30169,0,0,1.30169,-10196.8,193.999)">
                <g transform="matrix(1,0,0,1.09825,-1131.87,-1568.69)">
                    <g transform="matrix(1,0,0,1,407.705,-549.215)">
                        <path d="M10530.8,2729.51L10530.8,2630.34" style="fill:none;stroke:black;stroke-width:4.57px;"/>
                    </g>
                    <g transform="matrix(1,0,0,1,407.705,-549.215)">
                        <path d="M10530.8,2630.34L10525,2643.21" style="fill:none;stroke:black;stroke-width:4.57px;"/>
                    </g>
                    <g transform="matrix(-1,0,0,1,21469.4,-549.215)">
                        <path d="M10530.8,2630.34L10525,2643.21" style="fill:none;stroke:black;stroke-width:4.57px;"/>
                    </g>
                </g>
                <g transform="matrix(6.12323e-17,1,-1,6.12323e-17,11987,-10112.7)">
                    <g transform="matrix(1,0,0,1,407.705,-549.215)">
                        <path d="M10530.8,2729.51L10530.8,2560.18" style="fill:none;stroke:black;stroke-width:4.8px;"/>
                    </g>
                    <g transform="matrix(1,0,0,1,407.705,-549.215)">
                        <path d="M10530.8,2560.18L10525,2573.05" style="fill:none;stroke:black;stroke-width:4.8px;"/>
                    </g>
                    <g transform="matrix(-1,0,0,1,21469.4,-549.215)">
                        <path d="M10530.8,2560.18L10525,2573.05" style="fill:none;stroke:black;stroke-width:4.8px;"/>
                    </g>
                </g>
                <g transform="matrix(0.76823,0,0,0.76823,-8240.48,475.802)">
                    <path d="M23510.7,425.205C23512.5,423.829 23513.9,420.281 23515.4,421.078C23516.8,421.874 23518.8,429.693 23520.1,429.983C23521.4,430.273 23523.7,420.788 23524.8,421.078C23526,421.367 23528.5,432.988 23529.5,431.721C23530.5,430.454 23533.3,414.127 23534.2,413.476C23535.2,412.824 23537.9,426.254 23539,427.811C23540,429.368 23542.9,419.732 23543.7,421.078C23544.6,422.707 23547.1,435.847 23548.4,434.979C23549.6,434.11 23551.8,417.059 23553.1,415.865C23554.4,414.67 23556.7,431.867 23557.8,427.811C23561.4,415.024 23570.4,343.243 23575.2,339.141C23580,335.039 23583.7,394.51 23586.7,403.199C23588.1,407.467 23591,387.264 23593,391.275C23595.6,396.268 23599.3,428.185 23602.1,433.152C23604.4,437.313 23606.4,421.606 23608.3,421.078C23610.2,420.55 23612.9,429.295 23614.5,429.983C23616.2,430.671 23619.2,424.372 23620.8,425.205C23622.4,426.037 23625.4,434.979 23627,434.979C23628.6,434.979 23631.7,425.748 23633.3,425.205C23634.9,424.662 23637.4,432.119 23639.5,431.721C23641.6,431.322 23643.1,422.272 23645.8,422.815C23648.5,423.358 23650.5,434.58 23652,434.979C23653.5,435.377 23657.3,425.509 23658.3,425.205C23659.2,424.9 23663.1,433.55 23664.5,433.152C23665.9,432.754 23669.1,422.511 23670.7,422.815C23672.4,423.12 23675.5,434.58 23677,434.979C23678.5,435.377 23682.2,428.463 23683.2,425.205" style="fill:none;stroke:black;stroke-width:6.25px;"/>
                </g>
            </g>
        </g>
    </g>
</svg>
