<?xml version="1.0" encoding="UTF-8" standalone="no"?>
<!DOCTYPE svg PUBLIC "-//W3C//DTD SVG 1.1//EN" "http://www.w3.org/Graphics/SVG/1.1/DTD/svg11.dtd">
<svg width="100%" height="100%" viewBox="0 0 235 156" version="1.1" xmlns="http://www.w3.org/2000/svg" xmlns:xlink="http://www.w3.org/1999/xlink" xml:space="preserve" xmlns:serif="http://www.serif.com/" style="fill-rule:evenodd;clip-rule:evenodd;stroke-linecap:round;stroke-linejoin:round;stroke-miterlimit:1.5;">
    <g transform="matrix(1,0,0,1,-2824.07,-1100.55)">
        <g transform="matrix(1,0,0,1,-16.0301,-23.5008)">
            <g id="grafica_1" transform="matrix(1.30169,0,0,1.30169,-9914.49,193.999)">
                <g transform="matrix(1,0,0,1.09825,-1131.87,-1568.69)">
                    <g transform="matrix(1,0,0,1,407.705,-549.215)">
                        <path d="M10530.8,2729.51L10530.8,2630.34" style="fill:none;stroke:black;stroke-width:4.57px;"/>
                    </g>
                    <g transform="matrix(1,0,0,1,407.705,-549.215)">
                        <path d="M10530.8,2630.34L10525,2643.21" style="fill:none;stroke:black;stroke-width:4.57px;"/>
                    </g>
                    <g transform="matrix(-1,0,0,1,21469.4,-549.215)">
                        <path d="M10530.8,2630.34L10525,2643.21" style="fill:none;stroke:black;stroke-width:4.57px;"/>
                    </g>
                </g>
                <g transform="matrix(6.12323e-17,1,-1,6.12323e-17,11987,-10112.7)">
                    <g transform="matrix(1,0,0,1,407.705,-549.215)">
                        <path d="M10530.8,2729.51L10530.8,2560.18" style="fill:none;stroke:black;stroke-width:4.8px;"/>
                    </g>
                    <g transform="matrix(1,0,0,1,407.705,-549.215)">
                        <path d="M10530.8,2560.18L10525,2573.05" style="fill:none;stroke:black;stroke-width:4.8px;"/>
                    </g>
                    <g transform="matrix(-1,0,0,1,21469.4,-549.215)">
                        <path d="M10530.8,2560.18L10525,2573.05" style="fill:none;stroke:black;stroke-width:4.8px;"/>
                    </g>
                </g>
                <g>
                    <g transform="matrix(0.833069,0,0,0.833069,-9764.89,297.538)">
                        <circle cx="23510.7" cy="593.506" r="2.937" style="fill:rgb(128,128,128);stroke:rgb(128,128,128);stroke-width:3.84px;"/>
                    </g>
                    <g transform="matrix(0.833069,0,0,0.833069,-9753.55,290.529)">
                        <circle cx="23510.7" cy="593.506" r="2.937" style="fill:rgb(128,128,128);stroke:rgb(128,128,128);stroke-width:3.84px;"/>
                    </g>
                    <g transform="matrix(0.833069,0,0,0.833069,-9754.71,276.179)">
                        <circle cx="23510.7" cy="593.506" r="2.937" style="fill:rgb(128,128,128);stroke:rgb(128,128,128);stroke-width:3.84px;"/>
                    </g>
                    <g transform="matrix(0.833069,0,0,0.833069,-9744.52,263.164)">
                        <circle cx="23510.7" cy="593.506" r="2.937" style="fill:rgb(128,128,128);stroke:rgb(128,128,128);stroke-width:3.84px;"/>
                    </g>
                    <g transform="matrix(0.833069,0,0,0.833069,-9755.87,304.88)">
                        <circle cx="23510.7" cy="593.506" r="2.937" style="fill:rgb(128,128,128);stroke:rgb(128,128,128);stroke-width:3.84px;"/>
                    </g>
                    <g transform="matrix(0.833069,0,0,0.833069,-9763.73,318.729)">
                        <circle cx="23510.7" cy="593.506" r="2.937" style="fill:rgb(128,128,128);stroke:rgb(128,128,128);stroke-width:3.84px;"/>
                    </g>
                    <g transform="matrix(0.833069,0,0,0.833069,-9743.36,278.504)">
                        <circle cx="23510.7" cy="593.506" r="2.937" style="fill:rgb(128,128,128);stroke:rgb(128,128,128);stroke-width:3.84px;"/>
                    </g>
                    <g transform="matrix(0.833069,0,0,0.833069,-9729.12,252.324)">
                        <circle cx="23510.7" cy="593.506" r="2.937" style="fill:rgb(128,128,128);stroke:rgb(128,128,128);stroke-width:3.84px;"/>
                    </g>
                    <g transform="matrix(0.833069,0,0,0.833069,-9707.89,253.486)">
                        <circle cx="23510.7" cy="593.506" r="2.937" style="fill:rgb(128,128,128);stroke:rgb(128,128,128);stroke-width:3.84px;"/>
                    </g>
                    <g transform="matrix(0.833069,0,0,0.833069,-9692.23,239.937)">
                        <circle cx="23510.7" cy="593.506" r="2.937" style="fill:rgb(128,128,128);stroke:rgb(128,128,128);stroke-width:3.84px;"/>
                    </g>
                    <g transform="matrix(0.833069,0,0,0.833069,-9727.48,257.791)">
                        <circle cx="23510.7" cy="593.506" r="2.937" style="fill:rgb(128,128,128);stroke:rgb(128,128,128);stroke-width:3.84px;"/>
                    </g>
                    <g transform="matrix(0.833069,0,0,0.833069,-9713.61,247.936)">
                        <circle cx="23510.7" cy="593.506" r="2.937" style="fill:rgb(128,128,128);stroke:rgb(128,128,128);stroke-width:3.84px;"/>
                    </g>
                    <g transform="matrix(0.833069,0,0,0.833069,-9723.95,242.895)">
                        <circle cx="23510.7" cy="593.506" r="2.937" style="fill:rgb(128,128,128);stroke:rgb(128,128,128);stroke-width:3.84px;"/>
                    </g>
                    <g transform="matrix(0.833069,0,0,0.833069,-9714.81,241.733)">
                        <circle cx="23510.7" cy="593.506" r="2.937" style="fill:rgb(128,128,128);stroke:rgb(128,128,128);stroke-width:3.84px;"/>
                    </g>
                    <g transform="matrix(0.833069,0,0,0.833069,-9737.1,252.324)">
                        <circle cx="23510.7" cy="593.506" r="2.937" style="fill:rgb(128,128,128);stroke:rgb(128,128,128);stroke-width:3.84px;"/>
                    </g>
                    <g transform="matrix(0.833069,0,0,0.833069,-9750.23,298.957)">
                        <circle cx="23510.7" cy="593.506" r="2.937" style="fill:rgb(128,128,128);stroke:rgb(128,128,128);stroke-width:3.84px;"/>
                    </g>
                    <g transform="matrix(0.833069,0,0,0.833069,-9749.06,281.515)">
                        <circle cx="23510.7" cy="593.506" r="2.937" style="fill:rgb(128,128,128);stroke:rgb(128,128,128);stroke-width:3.84px;"/>
                    </g>
                    <g transform="matrix(0.833069,0,0,0.833069,-9762.08,282.678)">
                        <circle cx="23510.7" cy="593.506" r="2.937" style="fill:rgb(128,128,128);stroke:rgb(128,128,128);stroke-width:3.84px;"/>
                    </g>
                    <g transform="matrix(0.833069,0,0,0.833069,-9717.13,262.149)">
                        <circle cx="23510.7" cy="593.506" r="2.937" style="fill:rgb(128,128,128);stroke:rgb(128,128,128);stroke-width:3.84px;"/>
                    </g>
                    <g transform="matrix(0.833069,0,0,0.833069,-9701.88,254.649)">
                        <circle cx="23510.7" cy="593.506" r="2.937" style="fill:rgb(128,128,128);stroke:rgb(128,128,128);stroke-width:3.84px;"/>
                    </g>
                    <g transform="matrix(0.833069,0,0,0.833069,-9749.06,259.824)">
                        <circle cx="23510.7" cy="593.506" r="2.937" style="fill:rgb(128,128,128);stroke:rgb(128,128,128);stroke-width:3.84px;"/>
                    </g>
                    <g transform="matrix(0.833069,0,0,0.833069,-9691.07,252.274)">
                        <circle cx="23510.7" cy="593.506" r="2.937" style="fill:rgb(128,128,128);stroke:rgb(128,128,128);stroke-width:3.84px;"/>
                    </g>
                    <g transform="matrix(0.833069,0,0,0.833069,-9676.87,246.768)">
                        <circle cx="23510.7" cy="593.506" r="2.937" style="fill:rgb(128,128,128);stroke:rgb(128,128,128);stroke-width:3.84px;"/>
                    </g>
                    <g transform="matrix(0.833069,0,0,0.833069,-9681.02,241.1)">
                        <circle cx="23510.7" cy="593.506" r="2.937" style="fill:rgb(128,128,128);stroke:rgb(128,128,128);stroke-width:3.84px;"/>
                    </g>
                    <g transform="matrix(0.833069,0,0,0.833069,-9653.31,233.597)">
                        <circle cx="23510.7" cy="593.506" r="2.937" style="fill:rgb(128,128,128);stroke:rgb(128,128,128);stroke-width:3.84px;"/>
                    </g>
                    <g transform="matrix(0.833069,0,0,0.833069,-9624.26,233.769)">
                        <circle cx="23510.7" cy="593.506" r="2.937" style="fill:rgb(128,128,128);stroke:rgb(128,128,128);stroke-width:3.84px;"/>
                    </g>
                    <g transform="matrix(0.833069,0,0,0.833069,-9633.58,246.456)">
                        <circle cx="23510.7" cy="593.506" r="2.937" style="fill:rgb(128,128,128);stroke:rgb(128,128,128);stroke-width:3.84px;"/>
                    </g>
                    <g transform="matrix(0.833069,0,0,0.833069,-9644.41,237.612)">
                        <circle cx="23510.7" cy="593.506" r="2.937" style="fill:rgb(128,128,128);stroke:rgb(128,128,128);stroke-width:3.84px;"/>
                    </g>
                    <g transform="matrix(0.833069,0,0,0.833069,-9665.92,237.612)">
                        <circle cx="23510.7" cy="593.506" r="2.937" style="fill:rgb(128,128,128);stroke:rgb(128,128,128);stroke-width:3.84px;"/>
                    </g>
                    <g transform="matrix(0.833069,0,0,0.833069,-9660.07,248.781)">
                        <circle cx="23510.7" cy="593.506" r="2.937" style="fill:rgb(128,128,128);stroke:rgb(128,128,128);stroke-width:3.84px;"/>
                    </g>
                    <g transform="matrix(0.833069,0,0,0.833069,-9730.28,265.957)">
                        <circle cx="23510.7" cy="593.506" r="2.937" style="fill:rgb(128,128,128);stroke:rgb(128,128,128);stroke-width:3.84px;"/>
                    </g>
                    <g transform="matrix(0.833069,0,0,0.833069,-9705.07,242.262)">
                        <circle cx="23510.7" cy="593.506" r="2.937" style="fill:rgb(128,128,128);stroke:rgb(128,128,128);stroke-width:3.84px;"/>
                    </g>
                </g>
                <g transform="matrix(0.76823,0,0,0.76823,-8240.48,336.02)">
                    <path d="M23512.5,612.202C23510.9,543.282 23607.4,517.015 23690.6,517.015" style="fill:none;stroke:black;stroke-width:6.25px;"/>
                </g>
            </g>
        </g>
    </g>
</svg>
