<?xml version="1.0" encoding="UTF-8" standalone="no"?>
<!DOCTYPE svg PUBLIC "-//W3C//DTD SVG 1.1//EN" "http://www.w3.org/Graphics/SVG/1.1/DTD/svg11.dtd">
<svg width="100%" height="100%" viewBox="0 0 197 147" version="1.1" xmlns="http://www.w3.org/2000/svg" xmlns:xlink="http://www.w3.org/1999/xlink" xml:space="preserve" xmlns:serif="http://www.serif.com/" style="fill-rule:evenodd;clip-rule:evenodd;stroke-linecap:round;stroke-linejoin:round;stroke-miterlimit:1.5;">
    <g transform="matrix(1,0,0,1,-2217.35,-612.801)">
        <g transform="matrix(1,0,0,1,-17.6902,-0.520973)">
            <g id="tmap" transform="matrix(5.51377e-17,-0.900466,0.900466,5.51377e-17,1744.79,1853.08)">
                <g>
                    <g transform="matrix(1,0,0,1,-22721.3,117.183)">
                        <path d="M23999.9,560.265L24032.9,564.974L24056.5,585.97L24088.4,596.982" style="fill:none;stroke:rgb(115,115,115);stroke-width:6.94px;"/>
                    </g>
                    <g transform="matrix(1,0,0,1,-22721.3,117.183)">
                        <path d="M24083.3,580.105L24056.5,585.97L24074.1,609.171" style="fill:none;stroke:rgb(115,115,115);stroke-width:6.94px;"/>
                    </g>
                    <g transform="matrix(1,0,0,1,-22721.3,117.183)">
                        <path d="M24072.9,509.416L24054.8,536.165L24086.4,542.521" style="fill:none;stroke:rgb(115,115,115);stroke-width:6.94px;"/>
                    </g>
                    <g transform="matrix(1,0,0,1,-22721.3,117.183)">
                        <path d="M24089.3,522.133L24054.8,536.165" style="fill:none;stroke:rgb(115,115,115);stroke-width:6.94px;"/>
                    </g>
                    <g transform="matrix(1,0,0,1,-22721.3,117.183)">
                        <path d="M23999.9,560.585L23996.3,536.165L23991.9,518.355" style="fill:none;stroke:rgb(115,115,115);stroke-width:6.94px;"/>
                    </g>
                    <g transform="matrix(1,0,0,1,-22721.3,117.183)">
                        <path d="M24005,560.585L24054.8,536.165" style="fill:none;stroke:rgb(115,115,115);stroke-width:6.94px;"/>
                    </g>
                    <g transform="matrix(1,0,0,1,-22721.3,117.183)">
                        <path d="M23999.9,560.585L24027.6,495.367L24034.8,475.803L24050.5,456.127L24063.3,436.006" style="fill:none;stroke:rgb(115,115,115);stroke-width:6.94px;"/>
                    </g>
                    <g transform="matrix(1,0,0,1,-22721.3,117.183)">
                        <path d="M23999.9,560.585L23987.4,581.513L23980.2,596.749" style="fill:none;stroke:rgb(115,115,115);stroke-width:6.94px;"/>
                    </g>
                    <g transform="matrix(1,0,0,1,-22721.3,117.183)">
                        <path d="M23999.9,560.585L24025.3,619.078L24031.6,636.624" style="fill:none;stroke:rgb(115,115,115);stroke-width:6.94px;"/>
                    </g>
                    <g transform="matrix(1,0,0,1,-22586.6,-3.72)">
                        <path d="M23865.2,681.168L23803.6,659.241" style="fill:none;stroke:rgb(115,115,115);stroke-width:6.94px;"/>
                    </g>
                </g>
                <g>
                    <g transform="matrix(2.1901,0,0,2.1901,-50157.1,-646.487)">
                        <circle cx="23510.7" cy="593.506" r="2.937" style="stroke:black;stroke-width:2.11px;"/>
                    </g>
                    <g transform="matrix(2.1901,0,0,2.1901,-50139.8,-673.236)">
                        <circle cx="23510.7" cy="593.506" r="2.937" style="stroke:black;stroke-width:2.11px;"/>
                    </g>
                    <g transform="matrix(2.1901,0,0,2.1901,-50122.6,-660.519)">
                        <circle cx="23510.7" cy="593.506" r="2.937" style="stroke:black;stroke-width:2.11px;"/>
                    </g>
                    <g transform="matrix(2.1901,0,0,2.1901,-50125.5,-640.131)">
                        <circle cx="23510.7" cy="593.506" r="2.937" style="stroke:black;stroke-width:2.11px;"/>
                    </g>
                    <g transform="matrix(2.1901,0,0,2.1901,-50184.3,-687.285)">
                        <circle cx="23510.7" cy="593.506" r="2.937" style="stroke:black;stroke-width:2.11px;"/>
                    </g>
                    <g transform="matrix(2.1901,0,0,2.1901,-50215.6,-646.487)">
                        <circle cx="23510.7" cy="593.506" r="2.937" style="stroke:black;stroke-width:2.11px;"/>
                    </g>
                    <g transform="matrix(2.1901,0,0,2.1901,-50220,-664.296)">
                        <circle cx="23510.7" cy="593.506" r="2.937" style="stroke:black;stroke-width:2.11px;"/>
                    </g>
                    <g transform="matrix(2.1901,0,0,2.1901,-50212,-622.387)">
                        <circle cx="23510.7" cy="593.506" r="2.937" style="stroke:black;stroke-width:2.11px;"/>
                    </g>
                    <g transform="matrix(2.1901,0,0,2.1901,-50179,-617.678)">
                        <circle cx="23510.7" cy="593.506" r="2.937" style="stroke:black;stroke-width:2.11px;"/>
                    </g>
                    <g transform="matrix(2.1901,0,0,2.1901,-50155.4,-596.682)">
                        <circle cx="23510.7" cy="593.506" r="2.937" style="stroke:black;stroke-width:2.11px;"/>
                    </g>
                    <g transform="matrix(2.1901,0,0,2.1901,-50137.6,-573.48)">
                        <circle cx="23510.7" cy="593.506" r="2.937" style="stroke:black;stroke-width:2.11px;"/>
                    </g>
                    <g transform="matrix(2.1901,0,0,2.1901,-50123.5,-585.67)">
                        <circle cx="23510.7" cy="593.506" r="2.937" style="stroke:black;stroke-width:2.11px;"/>
                    </g>
                    <g transform="matrix(2.1901,0,0,2.1901,-50128.6,-602.547)">
                        <circle cx="23510.7" cy="593.506" r="2.937" style="stroke:black;stroke-width:2.11px;"/>
                    </g>
                    <g transform="matrix(2.1901,0,0,2.1901,-50186.6,-563.574)">
                        <circle cx="23510.7" cy="593.506" r="2.937" style="stroke:black;stroke-width:2.11px;"/>
                    </g>
                    <g transform="matrix(2.1901,0,0,2.1901,-50180.1,-546.028)">
                        <circle cx="23510.7" cy="593.506" r="2.937" style="stroke:black;stroke-width:2.11px;"/>
                    </g>
                    <g transform="matrix(2.1901,0,0,2.1901,-50224.5,-601.139)">
                        <circle cx="23510.7" cy="593.506" r="2.937" style="stroke:black;stroke-width:2.11px;"/>
                    </g>
                    <g transform="matrix(2.1901,0,0,2.1901,-50231.7,-585.903)">
                        <circle cx="23510.7" cy="593.506" r="2.937" style="stroke:black;stroke-width:2.11px;"/>
                    </g>
                    <g transform="matrix(2.1901,0,0,2.1901,-50177.1,-706.849)">
                        <circle cx="23510.7" cy="593.506" r="2.937" style="stroke:black;stroke-width:2.11px;"/>
                    </g>
                    <g transform="matrix(2.1901,0,0,2.1901,-50161.4,-726.525)">
                        <circle cx="23510.7" cy="593.506" r="2.937" style="stroke:black;stroke-width:2.11px;"/>
                    </g>
                    <g transform="matrix(2.1901,0,0,2.1901,-50148.6,-746.645)">
                        <circle cx="23510.7" cy="593.506" r="2.937" style="stroke:black;stroke-width:2.11px;"/>
                    </g>
                </g>
            </g>
        </g>
    </g>
</svg>
