<?xml version="1.0" encoding="UTF-8" standalone="no"?>
<!DOCTYPE svg PUBLIC "-//W3C//DTD SVG 1.1//EN" "http://www.w3.org/Graphics/SVG/1.1/DTD/svg11.dtd">
<svg width="100%" height="100%" viewBox="0 0 36 146" version="1.1" xmlns="http://www.w3.org/2000/svg" xmlns:xlink="http://www.w3.org/1999/xlink" xml:space="preserve" xmlns:serif="http://www.serif.com/" style="fill-rule:evenodd;clip-rule:evenodd;stroke-linecap:round;stroke-linejoin:round;stroke-miterlimit:1.5;">
    <g transform="matrix(1,0,0,1,-2610.66,-612.801)">
        <g transform="matrix(1,0,0,1,-17.6902,-0.520973)">
            <g id="vector" transform="matrix(0.999897,0,0,0.999897,1417.74,-71.1845)">
                <g transform="matrix(1.53205e-16,-2.50203,2.50203,1.53205e-16,-256.466,59526)">
                    <circle cx="23510.7" cy="593.506" r="2.937" style="stroke:black;stroke-width:1.67px;"/>
                </g>
                <g transform="matrix(1.53205e-16,-2.50203,2.50203,1.53205e-16,-256.466,59553.7)">
                    <circle cx="23510.7" cy="593.506" r="2.937" style="stroke:black;stroke-width:1.67px;"/>
                </g>
                <g transform="matrix(1.53205e-16,-2.50203,2.50203,1.53205e-16,-256.466,59581.5)">
                    <circle cx="23510.7" cy="593.506" r="2.937" style="stroke:black;stroke-width:1.67px;"/>
                </g>
                <g transform="matrix(1.53205e-16,-2.50203,2.50203,1.53205e-16,-256.466,59609.2)">
                    <circle cx="23510.7" cy="593.506" r="2.937" style="stroke:black;stroke-width:1.67px;"/>
                </g>
                <g transform="matrix(1.53205e-16,-2.50203,2.50203,1.53205e-16,-256.466,59637)">
                    <circle cx="23510.7" cy="593.506" r="2.937" style="stroke:black;stroke-width:1.67px;"/>
                </g>
                <g transform="matrix(1,0,0,1,-22279,190.878)">
                    <rect x="23491.8" y="495.782" width="31.377" height="141.784" style="fill:none;stroke:black;stroke-width:4.17px;"/>
                </g>
            </g>
        </g>
    </g>
</svg>
