<?xml version="1.0" encoding="UTF-8" standalone="no"?>
<!DOCTYPE svg PUBLIC "-//W3C//DTD SVG 1.1//EN" "http://www.w3.org/Graphics/SVG/1.1/DTD/svg11.dtd">
<svg width="100%" height="100%" viewBox="0 0 147 142" version="1.1" xmlns="http://www.w3.org/2000/svg" xmlns:xlink="http://www.w3.org/1999/xlink" xml:space="preserve" xmlns:serif="http://www.serif.com/" style="fill-rule:evenodd;clip-rule:evenodd;stroke-linecap:round;stroke-miterlimit:2;">
    <g transform="matrix(1,0,0,1,-2045.59,-860.245)">
        <g transform="matrix(1,0,0,1,-16.4483,-21.609)">
            <g id="Binding-mode" serif:id="Binding mode" transform="matrix(0.518673,0,0,0.518673,1926.39,693.565)">
                <g>
                    <g transform="matrix(0.229915,0,0,0.229659,-472.419,-1199.64)">
                        <path d="M3556,7841.64L3556,7352" style="fill:none;stroke:black;stroke-width:52.44px;stroke-dasharray:0,78.66,0,0;"/>
                    </g>
                    <g transform="matrix(0.229915,0,0,0.229659,-472.419,-1199.64)">
                        <path d="M3556,7063.06L3556,7352" style="fill:none;stroke:black;stroke-width:52.44px;"/>
                    </g>
                    <g transform="matrix(-0.114958,0.199112,-0.19889,-0.114829,2158.58,525.22)">
                        <path d="M3556,7062.36L3556,7352" style="fill:none;stroke:black;stroke-width:52.44px;"/>
                    </g>
                    <g transform="matrix(-0.114958,-0.199112,0.19889,-0.114829,-650.687,1941.31)">
                        <path d="M3556,7062.36L3556,7352" style="fill:none;stroke:black;stroke-width:52.44px;"/>
                    </g>
                    <g transform="matrix(0.229915,0,0,0.229659,-547.715,-1199.64)">
                        <path d="M4384,7842.34L4384,7352" style="fill:none;stroke:black;stroke-width:52.44px;stroke-dasharray:0,78.66,0,0;"/>
                    </g>
                    <g transform="matrix(0.229915,0,0,0.229659,-547.715,-1199.64)">
                        <path d="M4384,7063.76L4384,7352" style="fill:none;stroke:black;stroke-width:52.44px;"/>
                    </g>
                    <g transform="matrix(-0.114958,-0.199112,0.19889,-0.114829,-440.567,2106.41)">
                        <path d="M4384,7063.06L4384,7352" style="fill:none;stroke:black;stroke-width:52.44px;"/>
                    </g>
                    <g transform="matrix(-0.114958,0.199112,-0.19889,-0.114829,2368.98,360.597)">
                        <path d="M4384,7063.06L4384,7352" style="fill:none;stroke:black;stroke-width:52.44px;"/>
                    </g>
                </g>
                <g>
                    <g transform="matrix(1.65738,0,0,1.65738,-2043.42,-231.638)">
                        <circle cx="1441.18" cy="394.56" r="15.698"/>
                    </g>
                    <g transform="matrix(1.65738,0,0,1.65738,-1985.82,-264.656)">
                        <circle cx="1441.18" cy="394.56" r="15.698"/>
                    </g>
                    <g transform="matrix(1.65738,0,0,1.65738,-1928.35,-231.638)">
                        <circle cx="1441.18" cy="394.56" r="15.698"/>
                    </g>
                    <g transform="matrix(1.65738,0,0,1.65738,-2101.03,-264.897)">
                        <circle cx="1441.18" cy="394.56" r="15.698"/>
                    </g>
                    <g transform="matrix(1.65738,0,0,1.65738,-1870.88,-264.656)">
                        <circle cx="1441.18" cy="394.56" r="15.698"/>
                    </g>
                    <g transform="matrix(1.65738,0,0,1.65738,-2043.42,-165.473)">
                        <circle cx="1441.18" cy="394.56" r="15.698"/>
                    </g>
                    <g transform="matrix(1.65738,0,0,1.65738,-2043.42,-44.0311)">
                        <circle cx="1441.18" cy="394.56" r="15.698"/>
                    </g>
                    <g transform="matrix(1.65738,0,0,1.65738,-1928.35,-165.473)">
                        <circle cx="1441.18" cy="394.56" r="15.698"/>
                    </g>
                    <g transform="matrix(1.65738,0,0,1.65738,-1928.35,-44.0311)">
                        <circle cx="1441.18" cy="394.56" r="15.698"/>
                    </g>
                </g>
            </g>
        </g>
    </g>
</svg>
