<?xml version="1.0" encoding="UTF-8" standalone="no"?>
<!DOCTYPE svg PUBLIC "-//W3C//DTD SVG 1.1//EN" "http://www.w3.org/Graphics/SVG/1.1/DTD/svg11.dtd">
<svg width="100%" height="100%" viewBox="0 0 144 178" version="1.1" xmlns="http://www.w3.org/2000/svg" xmlns:xlink="http://www.w3.org/1999/xlink" xml:space="preserve" xmlns:serif="http://www.serif.com/" style="fill-rule:evenodd;clip-rule:evenodd;stroke-linecap:round;stroke-linejoin:round;stroke-miterlimit:1.5;">
    <g transform="matrix(1,0,0,1,-3109.73,-1075.05)">
        <g transform="matrix(1.10724,0,0,1,-196.34,0)">
            <g id="Paper" transform="matrix(0.90315,0,0,1,-6821.41,-950.619)">
                <g id="hoja" transform="matrix(1,0,0,1,-54.9141,-29.2834)">
                    <g transform="matrix(1,0,0,1,0.581504,0)">
                        <path d="M10992.1,2090.34L10992.1,2058.08L10916.4,2058.08L10916.4,2199.85L11024.9,2199.85L11024.9,2090.34L10992.1,2090.34Z" style="fill:white;stroke:black;stroke-width:6.25px;"/>
                    </g>
                    <g transform="matrix(1,0,0,1,0.581504,0)">
                        <path d="M10992.1,2058.08L11024.4,2090.34L10992.1,2090.34L10992.1,2058.08Z" style="fill:white;stroke:black;stroke-width:6.25px;"/>
                    </g>
                </g>
                <g id="hoja1" serif:id="hoja" transform="matrix(1,0,0,1,-40.2724,-14.6417)">
                    <g transform="matrix(1,0,0,1,0.581504,0)">
                        <path d="M10992.1,2090.34L10992.1,2058.08L10916.4,2058.08L10916.4,2199.85L11024.9,2199.85L11024.9,2090.34L10992.1,2090.34Z" style="fill:white;stroke:black;stroke-width:6.25px;"/>
                    </g>
                    <g transform="matrix(1,0,0,1,0.581504,0)">
                        <path d="M10992.1,2058.08L11024.4,2090.34L10992.1,2090.34L10992.1,2058.08Z" style="fill:white;stroke:black;stroke-width:6.25px;"/>
                    </g>
                </g>
                <g id="hoja2" serif:id="hoja" transform="matrix(1,0,0,1,-25.6307,0)">
                    <g transform="matrix(1,0,0,1,0.581504,0)">
                        <path d="M10992.1,2090.34L10992.1,2058.08L10916.4,2058.08L10916.4,2199.85L11024.9,2199.85L11024.9,2090.34L10992.1,2090.34Z" style="fill:white;stroke:black;stroke-width:6.25px;"/>
                    </g>
                    <g transform="matrix(1,0,0,1,0.581504,0)">
                        <path d="M10992.1,2058.08L11024.4,2090.34L10992.1,2090.34L10992.1,2058.08Z" style="fill:white;stroke:black;stroke-width:6.25px;"/>
                    </g>
                    <g transform="matrix(0.689237,0,0,0.238768,9520.37,1727.61)">
                        <g transform="matrix(1.45088,0,0,4.18817,0,0)">
                            <path d="M1408.46,348.09L1443.07,348.09" style="fill:none;stroke:black;stroke-width:6.25px;"/>
                        </g>
                        <g transform="matrix(1.45088,0,0,4.18817,0,0)">
                            <path d="M1450.86,348.09L1462.29,348.09" style="fill:none;stroke:black;stroke-width:6.25px;"/>
                        </g>
                    </g>
                    <g transform="matrix(0.689237,0,0,0.238768,9520.37,1726.96)">
                        <g transform="matrix(1.45088,0,0,4.18817,0,0)">
                            <path d="M1408.46,360.657L1417.31,360.657" style="fill:none;stroke:black;stroke-width:6.25px;"/>
                        </g>
                        <g transform="matrix(1.45088,0,0,4.18817,0,0)">
                            <path d="M1425.76,360.657L1462.29,360.657" style="fill:none;stroke:black;stroke-width:6.25px;"/>
                        </g>
                    </g>
                    <g transform="matrix(0.689237,0,0,0.238768,9520.37,1726.3)">
                        <g transform="matrix(1.45088,0,0,4.18817,0,0)">
                            <path d="M1408.46,373.223L1432.86,373.223" style="fill:none;stroke:black;stroke-width:6.25px;"/>
                        </g>
                        <g transform="matrix(1.45088,0,0,4.18817,0,0)">
                            <path d="M1443.07,373.223L1450.86,373.223" style="fill:none;stroke:black;stroke-width:6.25px;"/>
                        </g>
                        <g transform="matrix(1.45088,0,0,4.18817,0,0)">
                            <path d="M1461.06,373.223L1494.83,373.223" style="fill:none;stroke:black;stroke-width:6.25px;"/>
                        </g>
                    </g>
                    <g transform="matrix(1,0,0,1,9520.37,1725.65)">
                        <path d="M1408.46,385.789L1446.96,385.789" style="fill:none;stroke:black;stroke-width:6.25px;"/>
                    </g>
                    <g transform="matrix(1,0,0,1,9520.37,1725.31)">
                        <rect x="1456.11" y="386.126" width="38.718" height="47.651" style="fill:rgb(233,233,233);stroke:black;stroke-width:6.25px;"/>
                    </g>
                    <g transform="matrix(0.689237,0,0,0.238768,9520.37,1725)">
                        <g transform="matrix(1.45088,0,0,4.18817,0,0)">
                            <path d="M1408.46,398.356L1418.6,398.356" style="fill:none;stroke:black;stroke-width:6.25px;"/>
                        </g>
                        <g transform="matrix(1.45088,0,0,4.18817,0,0)">
                            <path d="M1427.71,398.356L1446.96,398.356" style="fill:none;stroke:black;stroke-width:6.25px;"/>
                        </g>
                    </g>
                    <g transform="matrix(0.689237,0,0,0.238768,9520.37,1724.34)">
                        <g transform="matrix(1.45088,0,0,4.18817,0,0)">
                            <path d="M1408.46,410.922L1432.86,410.922" style="fill:none;stroke:black;stroke-width:6.25px;"/>
                        </g>
                        <g transform="matrix(1.45088,0,0,4.18817,0,0)">
                            <path d="M1440.64,410.922L1446.96,410.922" style="fill:none;stroke:black;stroke-width:6.25px;"/>
                        </g>
                    </g>
                    <g transform="matrix(0.689237,0,0,0.238768,9520.37,1725.16)">
                        <g transform="matrix(1.45088,0,0,4.18817,0,0)">
                            <path d="M1408.46,422.018L1411.71,422.018" style="fill:none;stroke:black;stroke-width:6.25px;"/>
                        </g>
                        <g transform="matrix(1.45088,0,0,4.18817,0,0)">
                            <path d="M1419.67,422.018L1446.96,422.018" style="fill:none;stroke:black;stroke-width:6.25px;"/>
                        </g>
                    </g>
                    <g transform="matrix(1,0,0,1,9520.37,1725.98)">
                        <path d="M1408.46,433.114L1446.96,433.114" style="fill:none;stroke:black;stroke-width:6.25px;"/>
                    </g>
                    <g transform="matrix(0.689237,0,0,0.238768,9520.37,1726.79)">
                        <g transform="matrix(1.45088,0,0,4.18817,0,0)">
                            <path d="M1408.46,444.21L1433.32,444.21" style="fill:none;stroke:black;stroke-width:6.25px;"/>
                        </g>
                        <g transform="matrix(1.45088,0,0,4.18817,0,0)">
                            <path d="M1443.8,444.21L1493.74,444.21" style="fill:none;stroke:black;stroke-width:6.25px;"/>
                        </g>
                    </g>
                    <g transform="matrix(0.689237,0,0,0.238768,9520.37,1727.61)">
                        <g transform="matrix(1.45088,0,0,4.18817,0,0)">
                            <path d="M1408.46,455.306L1450.86,455.306" style="fill:none;stroke:black;stroke-width:6.25px;"/>
                        </g>
                        <g transform="matrix(1.45088,0,0,4.18817,0,0)">
                            <path d="M1458.75,455.306L1493.74,455.306" style="fill:none;stroke:black;stroke-width:6.25px;"/>
                        </g>
                    </g>
                </g>
            </g>
        </g>
    </g>
</svg>
