<?xml version="1.0" encoding="UTF-8" standalone="no"?>
<!DOCTYPE svg PUBLIC "-//W3C//DTD SVG 1.1//EN" "http://www.w3.org/Graphics/SVG/1.1/DTD/svg11.dtd">
<svg width="100%" height="100%" viewBox="0 0 155 155" version="1.1" xmlns="http://www.w3.org/2000/svg" xmlns:xlink="http://www.w3.org/1999/xlink" xml:space="preserve" xmlns:serif="http://www.serif.com/" style="fill-rule:evenodd;clip-rule:evenodd;stroke-linecap:round;stroke-linejoin:round;stroke-miterlimit:1.5;">
    <g transform="matrix(1,0,0,1,-1860.92,-1351.15)">
        <g transform="matrix(1,0,0,1,-13.4524,-0.160513)">
            <g id="design" transform="matrix(1,0,0,1,-9152.97,-700.464)">
                <g id="regla" transform="matrix(0.818948,-0.818948,0.818948,0.818948,266.737,9479.74)">
                    <g transform="matrix(1,0,0,1,0.581504,0)">
                        <path d="M11123.8,2063.81C11123.8,2062.29 11123.2,2060.83 11122.1,2059.76C11121.1,2058.68 11119.6,2058.08 11118.1,2058.08C11110.7,2058.08 11097.8,2058.08 11090.4,2058.08C11088.9,2058.08 11087.5,2058.68 11086.4,2059.76C11085.3,2060.83 11084.7,2062.29 11084.7,2063.81C11084.7,2086.67 11084.7,2171.26 11084.7,2194.12C11084.7,2195.64 11085.3,2197.1 11086.4,2198.17C11087.5,2199.24 11088.9,2199.85 11090.4,2199.85C11097.8,2199.85 11110.7,2199.85 11118.1,2199.85C11119.6,2199.85 11121.1,2199.24 11122.1,2198.17C11123.2,2197.1 11123.8,2195.64 11123.8,2194.12C11123.8,2171.26 11123.8,2086.67 11123.8,2063.81Z" style="fill:none;stroke:black;stroke-width:5.4px;"/>
                    </g>
                    <g transform="matrix(1,0,0,1,0.581504,-17.5123)">
                        <path d="M11123.8,2085.63L11098.6,2085.63" style="fill:none;stroke:black;stroke-width:5.4px;"/>
                    </g>
                    <g transform="matrix(1,0,0,1,0.581504,104.084)">
                        <path d="M11123.8,2085.63L11098.6,2085.63" style="fill:none;stroke:black;stroke-width:5.4px;"/>
                    </g>
                    <g transform="matrix(1,0,0,1,0.581504,-18.1047)">
                        <path d="M11123.8,2096.36L11111.2,2096.36" style="fill:none;stroke:black;stroke-width:5.4px;"/>
                    </g>
                    <g transform="matrix(1,0,0,1,0.581504,-7.97174)">
                        <path d="M11123.8,2096.36L11111.2,2096.36" style="fill:none;stroke:black;stroke-width:5.4px;"/>
                    </g>
                    <g transform="matrix(1,0,0,1,0.581504,2.16126)">
                        <path d="M11123.8,2096.36L11111.2,2096.36" style="fill:none;stroke:black;stroke-width:5.4px;"/>
                    </g>
                    <g transform="matrix(1,0,0,1,0.581504,23.0197)">
                        <path d="M11123.8,2085.63L11098.6,2085.63" style="fill:none;stroke:black;stroke-width:5.4px;"/>
                    </g>
                    <g transform="matrix(1,0,0,1,0.581504,22.4273)">
                        <path d="M11123.8,2096.36L11111.2,2096.36" style="fill:none;stroke:black;stroke-width:5.4px;"/>
                    </g>
                    <g transform="matrix(1,0,0,1,0.581504,32.5603)">
                        <path d="M11123.8,2096.36L11111.2,2096.36" style="fill:none;stroke:black;stroke-width:5.4px;"/>
                    </g>
                    <g transform="matrix(1,0,0,1,0.581504,42.6933)">
                        <path d="M11123.8,2096.36L11111.2,2096.36" style="fill:none;stroke:black;stroke-width:5.4px;"/>
                    </g>
                    <g transform="matrix(1,0,0,1,0.581504,63.5517)">
                        <path d="M11123.8,2085.63L11098.6,2085.63" style="fill:none;stroke:black;stroke-width:5.4px;"/>
                    </g>
                    <g transform="matrix(1,0,0,1,0.581504,62.9593)">
                        <path d="M11123.8,2096.36L11111.2,2096.36" style="fill:none;stroke:black;stroke-width:5.4px;"/>
                    </g>
                    <g transform="matrix(1,0,0,1,0.581504,73.0923)">
                        <path d="M11123.8,2096.36L11111.2,2096.36" style="fill:none;stroke:black;stroke-width:5.4px;"/>
                    </g>
                    <g transform="matrix(1,0,0,1,0.581504,83.2253)">
                        <path d="M11123.8,2096.36L11111.2,2096.36" style="fill:none;stroke:black;stroke-width:5.4px;"/>
                    </g>
                </g>
                <g id="lapiz" transform="matrix(0.818948,0.818948,-0.818948,0.818948,3791.61,-8664.83)">
                    <g transform="matrix(1,0,0,1,0.581504,0)">
                        <path d="M11069.4,2058.08C11069.4,2055.97 11067.7,2054.27 11065.6,2054.27L11035.5,2054.27C11033.4,2054.27 11031.7,2055.97 11031.7,2058.08L11031.7,2172.88C11031.7,2173.53 11031.9,2174.17 11032.2,2174.74L11047.2,2201.7C11047.9,2202.91 11049.1,2203.66 11050.5,2203.66C11051.9,2203.66 11053.2,2202.91 11053.9,2201.7L11068.9,2174.74C11069.2,2174.17 11069.4,2173.53 11069.4,2172.88L11069.4,2058.08Z" style="fill:none;stroke:white;stroke-width:5.4px;"/>
                    </g>
                    <g transform="matrix(1,0,0,1,0.581504,0)">
                        <path d="M11065.6,2058.08L11035.5,2058.08L11035.5,2172.88L11050.5,2199.85L11065.6,2172.88L11065.6,2058.08Z" style="fill:white;stroke:black;stroke-width:5.4px;"/>
                    </g>
                    <g transform="matrix(1,0,0,0.141102,0.581504,1767.68)">
                        <rect x="11035.5" y="2058.08" width="30.067" height="141.769" style="fill:none;stroke:black;stroke-width:7.56px;"/>
                    </g>
                    <g transform="matrix(0.391475,0,0,0.668669,6725.1,701.909)">
                        <path d="M11065.6,2058.08L11035.5,2058.08L11035.5,2187.58L11050.5,2199.85L11065.6,2187.58L11065.6,2058.08Z" style="stroke:black;stroke-width:9.85px;"/>
                    </g>
                    <g transform="matrix(1,0,0,1,0.581504,0)">
                        <path d="M11035.5,2172.88L11044.6,2164.68" style="fill:none;stroke:black;stroke-width:5.4px;"/>
                    </g>
                    <g transform="matrix(1,0,0,1,0.581504,0)">
                        <path d="M11056.4,2164.68L11065.6,2172.88" style="fill:none;stroke:black;stroke-width:5.4px;"/>
                    </g>
                    <g transform="matrix(1,0,0,1,0.581504,0)">
                        <path d="M11044.6,2188.79L11056.4,2188.79L11050.5,2199.85L11044.6,2188.79Z" style="stroke:black;stroke-width:5.4px;"/>
                    </g>
                </g>
            </g>
        </g>
    </g>
</svg>
