<?xml version="1.0" encoding="UTF-8" standalone="no"?>
<!DOCTYPE svg PUBLIC "-//W3C//DTD SVG 1.1//EN" "http://www.w3.org/Graphics/SVG/1.1/DTD/svg11.dtd">
<svg width="100%" height="100%" viewBox="0 0 94 94" version="1.1" xmlns="http://www.w3.org/2000/svg" xmlns:xlink="http://www.w3.org/1999/xlink" xml:space="preserve" xmlns:serif="http://www.serif.com/" style="fill-rule:evenodd;clip-rule:evenodd;stroke-linecap:round;stroke-linejoin:round;stroke-miterlimit:1.5;">
    <g transform="matrix(1,0,0,1,-3088.41,-386.648)">
        <g transform="matrix(1,0,0,1,-16.1765,0.21415)">
            <g id="processor2" transform="matrix(1.17704,0,0,1.17704,2089.64,-667.001)">
                <g transform="matrix(0.849591,0,0,0.849591,-349.87,359.151)">
                    <path d="M1506.64,654.006C1506.64,651.544 1505.66,649.182 1503.92,647.441C1502.18,645.7 1499.82,644.722 1497.35,644.722L1450.06,644.722C1447.6,644.722 1445.24,645.7 1443.5,647.441C1441.76,649.182 1440.78,651.544 1440.78,654.006L1440.78,701.296C1440.78,703.758 1441.76,706.12 1443.5,707.861C1445.24,709.602 1447.6,710.58 1450.06,710.58L1497.35,710.58C1499.82,710.58 1502.18,709.602 1503.92,707.861C1505.66,706.12 1506.64,703.758 1506.64,701.296L1506.64,654.006Z"/>
                </g>
                <g transform="matrix(1.01161,0,0,1.01161,-18975.4,-10.8568)">
                    <path d="M19637.1,906.901L19637.1,899.596" style="fill:none;stroke:black;stroke-width:8.3px;"/>
                </g>
                <g transform="matrix(6.19434e-17,1.01161,-1.01161,6.19434e-17,1847.91,-18942.7)">
                    <path d="M19637.1,906.901L19637.1,899.596" style="fill:none;stroke:black;stroke-width:8.3px;"/>
                </g>
                <g transform="matrix(1.01161,0,0,1.01161,-18975.4,53.1353)">
                    <path d="M19637.1,906.901L19637.1,899.596" style="fill:none;stroke:black;stroke-width:8.3px;"/>
                </g>
                <g transform="matrix(6.19434e-17,1.01161,-1.01161,6.19434e-17,1783.92,-18942.7)">
                    <path d="M19637.1,906.901L19637.1,899.596" style="fill:none;stroke:black;stroke-width:8.3px;"/>
                </g>
                <g transform="matrix(1.01161,0,0,1.01161,-18963,-10.8568)">
                    <path d="M19637.1,906.901L19637.1,899.596" style="fill:none;stroke:black;stroke-width:8.3px;"/>
                </g>
                <g transform="matrix(6.19434e-17,1.01161,-1.01161,6.19434e-17,1847.91,-18930.3)">
                    <path d="M19637.1,906.901L19637.1,899.596" style="fill:none;stroke:black;stroke-width:8.3px;"/>
                </g>
                <g transform="matrix(1.01161,0,0,1.01161,-18963,53.1353)">
                    <path d="M19637.1,906.901L19637.1,899.596" style="fill:none;stroke:black;stroke-width:8.3px;"/>
                </g>
                <g transform="matrix(6.19434e-17,1.01161,-1.01161,6.19434e-17,1783.92,-18930.3)">
                    <path d="M19637.1,906.901L19637.1,899.596" style="fill:none;stroke:black;stroke-width:8.3px;"/>
                </g>
                <g transform="matrix(1.01161,0,0,1.01161,-18950.6,-10.8568)">
                    <path d="M19637.1,906.901L19637.1,899.596" style="fill:none;stroke:black;stroke-width:8.3px;"/>
                </g>
                <g transform="matrix(6.19434e-17,1.01161,-1.01161,6.19434e-17,1847.91,-18917.9)">
                    <path d="M19637.1,906.901L19637.1,899.596" style="fill:none;stroke:black;stroke-width:8.3px;"/>
                </g>
                <g transform="matrix(1.01161,0,0,1.01161,-18950.6,53.1353)">
                    <path d="M19637.1,906.901L19637.1,899.596" style="fill:none;stroke:black;stroke-width:8.3px;"/>
                </g>
                <g transform="matrix(6.19434e-17,1.01161,-1.01161,6.19434e-17,1783.92,-18917.9)">
                    <path d="M19637.1,906.901L19637.1,899.596" style="fill:none;stroke:black;stroke-width:8.3px;"/>
                </g>
                <g transform="matrix(0.622365,0,0,0.622365,-30.0957,521.439)">
                    <text x="1478.99px" y="696.038px" style="font-family:'Calibri-Bold', 'Calibri', sans-serif;font-weight:700;font-size:50px;fill:white;">xN</text>
                </g>
            </g>
        </g>
    </g>
</svg>
