<?xml version="1.0" encoding="UTF-8" standalone="no"?>
<!DOCTYPE svg PUBLIC "-//W3C//DTD SVG 1.1//EN" "http://www.w3.org/Graphics/SVG/1.1/DTD/svg11.dtd">
<svg width="100%" height="100%" viewBox="0 0 211 149" version="1.1" xmlns="http://www.w3.org/2000/svg" xmlns:xlink="http://www.w3.org/1999/xlink" xml:space="preserve" xmlns:serif="http://www.serif.com/" style="fill-rule:evenodd;clip-rule:evenodd;stroke-linecap:round;stroke-linejoin:round;stroke-miterlimit:1.5;">
    <g transform="matrix(1,0,0,1,-2120.93,-1104.34)">
        <g transform="matrix(1,0,0,1,-16.0301,-23.5008)">
            <g transform="matrix(1,0,0,1,-8776.93,-927.118)">
                <g id="Exp_data">
                    <g id="hoja">
                        <g transform="matrix(1,0,0,1,0.581504,0)">
                            <path d="M11087.6,2090.34L11087.6,2058.08L10916.4,2058.08L10916.4,2199.85L11120.3,2199.85L11120.3,2090.34L11087.6,2090.34Z" style="fill:none;stroke:black;stroke-width:6.25px;"/>
                        </g>
                        <g transform="matrix(1,0,0,1,0.581504,0)">
                            <path d="M11087.6,2058.08L11119.8,2090.34L11087.6,2090.34L11087.6,2058.08Z" style="fill:none;stroke:black;stroke-width:6.25px;"/>
                        </g>
                        <g transform="matrix(1.30282,0,0,1,-3142.73,-361.839)">
                            <path d="M10803.3,2444.56L10859.3,2444.56" style="fill:none;stroke:black;stroke-width:5.38px;"/>
                        </g>
                        <g transform="matrix(1.30282,0,0,1,-3142.73,-347.868)">
                            <path d="M10803.3,2444.56L10859.3,2444.56" style="fill:none;stroke:black;stroke-width:5.38px;"/>
                        </g>
                        <g transform="matrix(1.30282,0,0,1,-3142.73,-333.898)">
                            <path d="M10803.3,2444.56L10859.3,2444.56" style="fill:none;stroke:black;stroke-width:5.38px;"/>
                        </g>
                        <g transform="matrix(1.30282,0,0,1,-3142.73,-319.928)">
                            <path d="M10803.3,2444.56L10859.3,2444.56" style="fill:none;stroke:black;stroke-width:5.38px;"/>
                        </g>
                        <g transform="matrix(1.30282,0,0,1,-3142.73,-305.958)">
                            <path d="M10803.3,2444.56L10859.3,2444.56" style="fill:none;stroke:black;stroke-width:5.38px;"/>
                        </g>
                        <g transform="matrix(1.30282,0,0,1,-3142.73,-291.988)">
                            <path d="M10803.3,2444.56L10859.3,2444.56" style="fill:none;stroke:black;stroke-width:5.38px;"/>
                        </g>
                        <g transform="matrix(1.30282,0,0,1,-3142.73,-278.018)">
                            <path d="M10803.3,2444.56L10859.3,2444.56" style="fill:none;stroke:black;stroke-width:5.38px;"/>
                        </g>
                        <g transform="matrix(1.30282,0,0,1,-3142.73,-264.048)">
                            <path d="M10803.3,2444.56L10859.3,2444.56" style="fill:none;stroke:black;stroke-width:5.38px;"/>
                        </g>
                        <g transform="matrix(1,0,0,1,129.487,-363.416)">
                            <rect x="10894" y="2474.08" width="82.412" height="69.851" style="fill:none;stroke:black;stroke-width:6.25px;"/>
                        </g>
                        <g transform="matrix(1,0,0,1,129.487,-363.416)">
                            <path d="M10918.1,2474.08L10918.1,2543.93L10918.1,2509.01L10976.4,2509.01" style="fill:none;stroke:black;stroke-width:6.25px;"/>
                        </g>
                        <g transform="matrix(1,0,0,1,129.487,-363.416)">
                            <path d="M10947.3,2474.08L10947.3,2543.93" style="fill:none;stroke:black;stroke-width:6.25px;"/>
                        </g>
                        <g transform="matrix(1,0,0,1,129.487,-362.74)">
                            <path d="M10918.1,2525.79L10976.4,2525.79" style="fill:none;stroke:black;stroke-width:6.25px;"/>
                        </g>
                        <g transform="matrix(1,0,0,1,129.487,-397.665)">
                            <path d="M10918.1,2525.79L10976.4,2525.79" style="fill:none;stroke:black;stroke-width:6.25px;"/>
                        </g>
                    </g>
                </g>
            </g>
        </g>
    </g>
</svg>
