<?xml version="1.0" encoding="UTF-8" standalone="no"?>
<!DOCTYPE svg PUBLIC "-//W3C//DTD SVG 1.1//EN" "http://www.w3.org/Graphics/SVG/1.1/DTD/svg11.dtd">
<svg width="100%" height="100%" viewBox="0 0 226 157" version="1.1" xmlns="http://www.w3.org/2000/svg" xmlns:xlink="http://www.w3.org/1999/xlink" xml:space="preserve" xmlns:serif="http://www.serif.com/" style="fill-rule:evenodd;clip-rule:evenodd;stroke-linecap:round;stroke-linejoin:round;stroke-miterlimit:1.5;">
    <g transform="matrix(1,0,0,1,-2953.59,-107.25)">
        <g transform="matrix(1,0,0,1,-17.6902,-0.160513)">
            <g id="brazo-robot" serif:id="brazo robot" transform="matrix(0.612447,0,0,0.612447,2288.91,-389.295)">
                <g transform="matrix(0.51522,-0.859541,0.970771,0.581893,-12022.7,20746.5)">
                    <path d="M23892.7,1046.19C23892.7,1038.07 23885.3,1031.48 23876.1,1031.48L23730.1,1031.48C23720.9,1031.48 23713.5,1038.07 23713.5,1046.19C23713.5,1054.32 23720.9,1060.91 23730.1,1060.91L23876.1,1060.91C23885.3,1060.91 23892.7,1054.32 23892.7,1046.19Z" style="stroke:white;stroke-width:9.55px;"/>
                </g>
                <g transform="matrix(-0.600158,-0.60016,0.800312,-0.80031,14785.6,15997.7)">
                    <path d="M23892.7,1046.19C23892.7,1038.07 23883.9,1031.48 23873.1,1031.48L23733.1,1031.48C23722.3,1031.48 23713.5,1038.07 23713.5,1046.19C23713.5,1054.32 23722.3,1060.91 23733.1,1060.91L23873.1,1060.91C23883.9,1060.91 23892.7,1054.32 23892.7,1046.19Z" style="stroke:white;stroke-width:10.2px;"/>
                </g>
                <g transform="matrix(0.833144,-0.306915,0.306915,0.833144,-18741.5,7417.02)">
                    <path d="M23849.2,1059.3C23855.2,1063.05 23862.8,1063.54 23869.3,1060.6C23875.8,1057.66 23880.4,1051.69 23881.6,1044.65C23882.4,1040.32 23882.7,1035.91 23882.7,1031.48C23882.7,988.033 23847.5,952.763 23804,952.763C23760.6,952.763 23725.3,988.033 23725.3,1031.48C23725.3,1035.91 23725.7,1040.32 23726.4,1044.65C23727.6,1051.68 23732.3,1057.66 23738.8,1060.59C23745.3,1063.53 23752.8,1063.04 23758.9,1059.29C23759.6,1058.89 23760.2,1058.5 23760.8,1058.11C23766,1054.92 23768.4,1048.66 23766.6,1042.86C23765.3,1039.23 23764.7,1035.38 23764.7,1031.48C23764.7,1009.75 23782.3,992.12 23804,992.12C23825.8,992.12 23843.4,1009.75 23843.4,1031.48C23843.4,1035.37 23842.8,1039.22 23841.7,1042.91C23839.9,1048.62 23842.3,1054.8 23847.4,1057.93C23847.9,1058.5 23848.5,1058.9 23849.2,1059.3Z" style="stroke:white;stroke-width:11.49px;"/>
                </g>
                <g transform="matrix(1,-5.55112e-17,0,1,-22587.5,-3.72)">
                    <path d="M23882.7,1031.48C23882.7,988.004 23847.5,952.763 23804,952.763C23760.6,952.763 23725.3,988.004 23725.3,1031.48L23882.7,1031.48Z" style="stroke:white;stroke-width:10.2px;"/>
                </g>
                <g transform="matrix(1.08521,-1.11022e-16,0,1.15853,-24614.8,-167.237)">
                    <path d="M23892.7,1044.43C23892.7,1037.28 23886.5,1031.48 23878.9,1031.48L23727.3,1031.48C23719.7,1031.48 23713.5,1037.28 23713.5,1044.43L23713.5,1047.96C23713.5,1055.11 23719.7,1060.91 23727.3,1060.91L23878.9,1060.91C23886.5,1060.91 23892.7,1055.11 23892.7,1047.96L23892.7,1044.43Z" style="stroke:white;stroke-width:9.09px;"/>
                </g>
            </g>
        </g>
    </g>
</svg>
