<?xml version="1.0" encoding="UTF-8" standalone="no"?>
<!DOCTYPE svg PUBLIC "-//W3C//DTD SVG 1.1//EN" "http://www.w3.org/Graphics/SVG/1.1/DTD/svg11.dtd">
<svg width="100%" height="100%" viewBox="0 0 217 149" version="1.1" xmlns="http://www.w3.org/2000/svg" xmlns:xlink="http://www.w3.org/1999/xlink" xml:space="preserve" xmlns:serif="http://www.serif.com/" style="fill-rule:evenodd;clip-rule:evenodd;stroke-linecap:round;stroke-linejoin:round;stroke-miterlimit:1.5;">
    <g transform="matrix(1,0,0,1,-1860.92,-103.022)">
        <g transform="matrix(1,0,0,1,-17.6902,-0.160513)">
            <g id="tubos-ensayo" serif:id="tubos ensayo" transform="matrix(1,0,0,1,-8616.73,-1951.77)">
                <g transform="matrix(1,0,0,1,-19.2585,0)">
                    <g transform="matrix(1,0,0,1,68.9578,0)">
                        <g transform="matrix(1,0,0,1,0.581504,0)">
                            <path d="M10606.8,2075.04L10606.8,2167.33C10606.8,2176.42 10614.2,2183.79 10623.3,2183.79C10624.3,2183.79 10625.3,2183.79 10626.3,2183.79C10635.4,2183.79 10642.8,2176.42 10642.8,2167.33L10642.8,2075.04L10644.1,2075.04C10648.8,2075.04 10652.6,2071.24 10652.6,2066.56C10652.6,2066.56 10652.6,2066.56 10652.6,2066.56C10652.6,2061.88 10648.8,2058.08 10644.1,2058.08C10633.6,2058.08 10616,2058.08 10605.5,2058.08C10600.8,2058.08 10597,2061.88 10597,2066.56C10597,2066.56 10597,2066.56 10597,2066.56C10597,2071.24 10600.8,2075.04 10605.5,2075.04L10606.8,2075.04Z" style="fill:none;stroke:black;stroke-width:6.25px;"/>
                        </g>
                        <g transform="matrix(1,0,0,1,0.581504,0)">
                            <path d="M10642.8,2075.04L10639.6,2075.04" style="fill:none;stroke:black;stroke-width:6.25px;"/>
                        </g>
                        <g transform="matrix(1,0,0,1,0.581504,0)">
                            <path d="M10606.8,2075.04L10628.7,2075.04" style="fill:none;stroke:black;stroke-width:6.25px;"/>
                        </g>
                        <g transform="matrix(1,0,0,1,-0.557571,2.82648)">
                            <path d="M10619.6,2115.01L10632.3,2115.01" style="fill:none;stroke:black;stroke-width:6.25px;"/>
                        </g>
                        <g transform="matrix(1,0,0,1,-0.557571,15.5456)">
                            <path d="M10619.6,2115.01L10632.3,2115.01" style="fill:none;stroke:black;stroke-width:6.25px;"/>
                        </g>
                        <g transform="matrix(1,0,0,1,-0.557571,28.2648)">
                            <path d="M10619.6,2115.01L10632.3,2115.01" style="fill:none;stroke:black;stroke-width:6.25px;"/>
                        </g>
                    </g>
                    <g transform="matrix(1,0,0,1,-73.9812,0)">
                        <g transform="matrix(1,0,0,1,0.581504,0)">
                            <path d="M10606.8,2075.04L10606.8,2167.33C10606.8,2176.42 10614.2,2183.79 10623.3,2183.79C10624.3,2183.79 10625.3,2183.79 10626.3,2183.79C10635.4,2183.79 10642.8,2176.42 10642.8,2167.33L10642.8,2075.04L10644.1,2075.04C10648.8,2075.04 10652.6,2071.24 10652.6,2066.56C10652.6,2066.56 10652.6,2066.56 10652.6,2066.56C10652.6,2061.88 10648.8,2058.08 10644.1,2058.08C10633.6,2058.08 10616,2058.08 10605.5,2058.08C10600.8,2058.08 10597,2061.88 10597,2066.56C10597,2066.56 10597,2066.56 10597,2066.56C10597,2071.24 10600.8,2075.04 10605.5,2075.04L10606.8,2075.04Z" style="fill:none;stroke:black;stroke-width:6.25px;"/>
                        </g>
                        <g transform="matrix(1,0,0,1,0.581504,0)">
                            <path d="M10642.8,2075.04L10639.6,2075.04" style="fill:none;stroke:black;stroke-width:6.25px;"/>
                        </g>
                        <g transform="matrix(1,0,0,1,0.581504,0)">
                            <path d="M10606.8,2075.04L10628.7,2075.04" style="fill:none;stroke:black;stroke-width:6.25px;"/>
                        </g>
                        <g transform="matrix(1,0,0,1,-0.557571,2.82648)">
                            <path d="M10619.6,2115.01L10632.3,2115.01" style="fill:none;stroke:black;stroke-width:6.25px;"/>
                        </g>
                        <g transform="matrix(1,0,0,1,-0.557571,15.5456)">
                            <path d="M10619.6,2115.01L10632.3,2115.01" style="fill:none;stroke:black;stroke-width:6.25px;"/>
                        </g>
                        <g transform="matrix(1,0,0,1,-0.557571,28.2648)">
                            <path d="M10619.6,2115.01L10632.3,2115.01" style="fill:none;stroke:black;stroke-width:6.25px;"/>
                        </g>
                    </g>
                    <g transform="matrix(1,0,0,1,-2.51166,0)">
                        <g transform="matrix(1,0,0,1,0.581504,0)">
                            <path d="M10606.8,2075.04L10606.8,2167.33C10606.8,2176.42 10614.2,2183.79 10623.3,2183.79C10624.3,2183.79 10625.3,2183.79 10626.3,2183.79C10635.4,2183.79 10642.8,2176.42 10642.8,2167.33L10642.8,2075.04L10644.1,2075.04C10648.8,2075.04 10652.6,2071.24 10652.6,2066.56C10652.6,2066.56 10652.6,2066.56 10652.6,2066.56C10652.6,2061.88 10648.8,2058.08 10644.1,2058.08C10633.6,2058.08 10616,2058.08 10605.5,2058.08C10600.8,2058.08 10597,2061.88 10597,2066.56C10597,2066.56 10597,2066.56 10597,2066.56C10597,2071.24 10600.8,2075.04 10605.5,2075.04L10606.8,2075.04Z" style="fill:none;stroke:black;stroke-width:6.25px;"/>
                        </g>
                        <g transform="matrix(1,0,0,1,-0.557571,28.2648)">
                            <path d="M10619.6,2115.01L10632.3,2115.01" style="fill:none;stroke:black;stroke-width:6.25px;"/>
                        </g>
                        <g transform="matrix(1,0,0,1,-0.557571,2.82648)">
                            <path d="M10619.6,2115.01L10632.3,2115.01" style="fill:none;stroke:black;stroke-width:6.25px;"/>
                        </g>
                        <g transform="matrix(1,0,0,1,-0.557571,15.5456)">
                            <path d="M10619.6,2115.01L10632.3,2115.01" style="fill:none;stroke:black;stroke-width:6.25px;"/>
                        </g>
                        <g transform="matrix(1,0,0,1,0.581504,0)">
                            <path d="M10642.8,2075.04L10639.6,2075.04" style="fill:none;stroke:black;stroke-width:6.25px;"/>
                        </g>
                        <g transform="matrix(1,0,0,1,0.581504,0)">
                            <path d="M10606.8,2075.04L10628.7,2075.04" style="fill:none;stroke:black;stroke-width:6.25px;"/>
                        </g>
                    </g>
                </g>
                <g>
                    <g transform="matrix(0.945532,0,0,1,560.471,7.67187)">
                        <path d="M10732.9,2094.59C10732.9,2092.15 10730.8,2090.18 10728.2,2090.18C10699.2,2090.18 10544.1,2090.18 10515.2,2090.18C10512.6,2090.18 10510.5,2092.15 10510.5,2094.59C10510.5,2094.59 10510.5,2094.59 10510.5,2094.59C10510.5,2097.03 10512.6,2099.01 10515.2,2099.01C10544.1,2099.01 10699.2,2099.01 10728.2,2099.01C10730.8,2099.01 10732.9,2097.03 10732.9,2094.59C10732.9,2094.59 10732.9,2094.59 10732.9,2094.59Z" style="fill:white;stroke:black;stroke-width:6.42px;"/>
                    </g>
                    <g transform="matrix(1,0,0,1,0.581504,0)">
                        <path d="M10497.9,2102.26L10497.9,2186.92C10497.9,2190.35 10499.2,2193.64 10501.7,2196.06C10504.1,2198.49 10507.4,2199.85 10510.8,2199.85C10520.3,2199.85 10531.6,2199.85 10531.6,2199.85" style="fill:none;stroke:black;stroke-width:6.25px;"/>
                    </g>
                    <g transform="matrix(-1,0,0,1,21206.6,0)">
                        <path d="M10497.9,2102.26L10497.9,2186.92C10497.9,2190.35 10499.2,2193.64 10501.7,2196.06C10504.1,2198.49 10507.4,2199.85 10510.8,2199.85C10520.3,2199.85 10531.6,2199.85 10531.6,2199.85" style="fill:none;stroke:black;stroke-width:6.25px;"/>
                    </g>
                </g>
            </g>
        </g>
    </g>
</svg>
