<?xml version="1.0" encoding="UTF-8" standalone="no"?>
<!DOCTYPE svg PUBLIC "-//W3C//DTD SVG 1.1//EN" "http://www.w3.org/Graphics/SVG/1.1/DTD/svg11.dtd">
<svg width="100%" height="100%" viewBox="0 0 139 149" version="1.1" xmlns="http://www.w3.org/2000/svg" xmlns:xlink="http://www.w3.org/1999/xlink" xml:space="preserve" xmlns:serif="http://www.serif.com/" style="fill-rule:evenodd;clip-rule:evenodd;stroke-linecap:round;stroke-linejoin:round;stroke-miterlimit:1.5;">
    <g transform="matrix(1,0,0,1,-2069.12,-1354.11)">
        <g transform="matrix(1,0,0,1,-13.4524,-0.160513)">
            <g id="optimized" transform="matrix(1.22983,0,0,1.22983,-11765.6,-1185.1)">
                <g transform="matrix(0.771429,0,0,1,2582.7,0)">
                    <path d="M11269.2,2117.71C11269.2,2114.72 11266,2112.3 11262.2,2112.3L11258.9,2112.3C11255.1,2112.3 11251.9,2114.72 11251.9,2117.71L11251.9,2175.91C11251.9,2178.89 11255.1,2181.31 11258.9,2181.31L11262.2,2181.31C11266,2181.31 11269.2,2178.89 11269.2,2175.91L11269.2,2117.71Z" style="stroke:black;stroke-width:5.69px;"/>
                </g>
                <g transform="matrix(1,0,0,1,0.581504,0)">
                    <path d="M11286.4,2118.78C11299.5,2109.9 11306.4,2107.88 11313.6,2102.23C11320.7,2096.57 11328.7,2091.11 11333,2076.59C11337.7,2060.84 11352,2066.89 11350,2082.24C11347.8,2099.08 11342,2103.59 11337,2111.5C11350,2115 11353.8,2114.07 11359.9,2116.76C11370.1,2121.32 11374.2,2131.71 11361.7,2142.21C11357.7,2154.61 11346.7,2178.58 11341.7,2182.43C11336.5,2183.27 11298.5,2184.49 11286.4,2174.57L11286.4,2118.78Z" style="fill:none;stroke:black;stroke-width:5.08px;"/>
                </g>
            </g>
        </g>
    </g>
</svg>
